<svg xmlns="http://www.w3.org/2000/svg" version="1.1" viewBox="4.14 4.13 686.36 319.87" width="462.84548331229735" height="216.05482521804504"><path d="M 324 5.475 C 297.928 9.890, 276.650 20.750, 264.238 35.977 C 260.874 40.104, 260.130 41.578, 261.293 41.809 C 262.148 41.979, 267.945 41.213, 274.174 40.107 C 291.083 37.106, 305.934 35.176, 320.950 34.028 C 338.631 32.677, 338.679 32.679, 341 35 C 342.936 36.936, 343 38.333, 343 78.500 L 343 120 347.500 120 L 352 120 352 79.565 C 352 56.667, 352.409 38.055, 352.943 36.651 C 353.461 35.287, 354.814 33.877, 355.948 33.517 C 360.617 32.035, 399.115 36.060, 424.283 40.661 C 429.114 41.544, 433.338 41.995, 433.669 41.664 C 434.621 40.712, 431.333 36.313, 425.075 30.168 C 413.303 18.607, 392.144 8.978, 370.966 5.543 C 359.560 3.693, 334.735 3.657, 324 5.475 M 297.500 45.548 C 283.672 46.842, 277.405 47.669, 263.268 50.063 C 256.134 51.271, 256.028 51.333, 255.390 54.733 C 254.077 61.732, 255.558 71.661, 258.941 78.532 C 267.094 95.092, 285.207 107.785, 310.810 114.880 C 317.377 116.700, 317.952 116.722, 318.421 115.174 C 318.700 114.253, 321.650 100.450, 324.977 84.500 C 328.304 68.550, 331.211 54.682, 331.437 53.682 C 332.114 50.687, 330.067 46.352, 327.403 45.138 C 324.311 43.729, 315.655 43.848, 297.500 45.548 M 366.635 46.073 C 364.509 47.745, 364 48.987, 364 52.498 C 364 56.933, 376.251 114.585, 377.448 115.781 C 378.450 116.783, 390.553 113.331, 399.312 109.544 C 411.313 104.356, 417.777 100.148, 425.546 92.469 C 435.053 83.072, 439.172 74.876, 439.763 64.185 C 440.424 52.217, 439.937 51.570, 428.825 49.661 C 415.302 47.338, 406.154 46.198, 391.696 45.032 C 372.929 43.519, 369.711 43.653, 366.635 46.073 M 225 156.960 L 225 165.919 233.250 166.210 L 241.500 166.500 241.771 186.750 L 242.041 207 254.521 207 C 263.821 207, 267.008 206.682, 267.030 205.750 C 267.047 205.063, 267.160 195.950, 267.280 185.500 L 267.500 166.500 275.750 166.210 L 284 165.919 284 156.960 L 284 148 254.500 148 L 225 148 225 156.960 M 288.500 175.752 C 282.450 191.013, 277.356 204.287, 277.180 205.250 C 276.890 206.840, 277.999 207, 289.326 207 L 301.792 207 305.942 195.250 C 308.224 188.787, 310.613 181.925, 311.250 180 C 311.887 178.075, 312.700 176.139, 313.056 175.698 C 313.412 175.257, 316.095 181.557, 319.018 189.698 C 321.940 197.839, 324.762 205.063, 325.288 205.750 C 326.720 207.621, 350 207.517, 350 205.640 C 350 204.892, 345.007 192.179, 338.904 177.390 C 332.801 162.600, 327.578 149.938, 327.297 149.250 C 326.923 148.336, 323.119 148, 313.143 148.002 L 299.500 148.003 288.500 175.752 M 344 157 L 344 166 352.479 166 L 360.959 166 361.229 186.250 L 361.500 206.500 374.229 206.780 L 386.958 207.059 387.229 186.780 L 387.500 166.500 395.750 166.210 L 404 165.919 404 156.960 L 404 148 374 148 L 344 148 344 157 M 418.097 150.222 C 417.616 151.475, 412.451 164.407, 406.620 178.959 C 400.789 193.511, 396.389 205.789, 396.842 206.242 C 397.295 206.695, 403.017 206.939, 409.558 206.783 L 421.449 206.500 426.898 190.757 C 429.895 182.098, 432.607 175.264, 432.924 175.571 C 433.241 175.877, 436.012 182.961, 439.083 191.314 L 444.665 206.500 457.333 206.780 C 464.300 206.934, 469.995 206.709, 469.988 206.280 C 469.982 205.851, 464.673 192.675, 458.189 177 L 446.402 148.500 432.687 148.222 C 419.217 147.948, 418.956 147.984, 418.097 150.222 M 336.500 263.733 C 334.169 264.316, 329.062 267.748, 327.227 269.963 C 316.470 282.954, 318.734 311.501, 331.174 319.734 C 337.079 323.641, 347.532 324.135, 354 320.812 C 359.682 317.893, 364.454 310.939, 366.058 303.240 C 367.380 296.894, 366.803 283.264, 365.010 278.487 C 360.645 266.859, 348.701 260.678, 336.500 263.733 M 567.247 263.657 C 563.543 264.451, 558.299 270.175, 557.061 274.774 C 555.808 279.426, 556.866 285.340, 559.734 289.717 C 561.575 292.527, 566.967 295.444, 575.436 298.213 C 583.074 300.710, 584 301.495, 584 305.467 C 584 309.885, 581.097 312.284, 575.606 312.404 C 570.460 312.516, 567.637 310.461, 565.960 305.379 C 564.961 302.351, 564.463 302.002, 561.172 302.015 C 555.651 302.038, 554.664 303.050, 555.475 307.853 C 556.274 312.582, 559.289 317.419, 563.282 320.377 C 567.183 323.267, 578.443 323.866, 584.607 321.512 C 593.406 318.152, 597.476 306.386, 593.190 296.697 C 590.823 291.346, 587.504 288.984, 578 285.889 C 569.452 283.105, 567 281.480, 567 278.599 C 567 275.353, 569.277 273.763, 574.106 273.636 C 577.418 273.549, 578.655 274.060, 580.599 276.320 C 581.920 277.855, 583 279.818, 583 280.681 C 583 281.905, 583.687 282.113, 586.125 281.625 C 587.844 281.281, 590.094 281, 591.125 281 C 593.827 281, 593.609 275.191, 590.750 270.990 C 586.832 265.233, 583.687 263.583, 576.218 263.368 C 572.523 263.261, 568.486 263.391, 567.247 263.657 M 277 293 L 277 322 282 322 L 287 322 287.200 315.250 C 287.310 311.538, 287.422 306.925, 287.450 305 L 287.500 301.500 296.086 300.473 C 301.118 299.870, 305.809 298.700, 307.420 297.645 C 313.839 293.438, 316.150 279.383, 311.718 271.500 C 308.169 265.186, 304.705 264.003, 289.750 264.002 L 277 264 277 293 M 370.332 266.250 C 370.633 267.488, 373.211 280.538, 376.061 295.250 L 381.242 322 386.946 322 L 392.651 322 395.424 308.750 C 400.598 284.031, 401.264 281.470, 401.973 283.550 C 402.339 284.622, 404.400 293.712, 406.553 303.750 L 410.468 322 416.007 322 L 421.547 322 426.945 294.750 C 429.914 279.762, 432.550 266.687, 432.803 265.693 C 433.211 264.092, 432.653 263.921, 427.892 264.193 L 422.522 264.500 419.394 281.783 C 417.674 291.289, 415.982 299.351, 415.633 299.700 C 415.285 300.048, 415 300.110, 415 299.836 C 415 299.562, 413.425 291.536, 411.500 282 C 409.575 272.464, 408 264.491, 408 264.283 C 408 264.075, 405.203 264.039, 401.785 264.202 L 395.571 264.500 393.895 272 C 392.973 276.125, 391.216 283.961, 389.990 289.413 C 388.657 295.342, 387.468 298.758, 387.031 297.913 C 386.629 297.136, 385.025 289.188, 383.466 280.250 L 380.632 264 375.208 264 C 370.086 264, 369.814 264.126, 370.332 266.250 M 438 293 L 438 322 456.500 322 L 475 322 475 317.029 L 475 312.058 461.750 311.779 L 448.500 311.500 448.500 304.500 L 448.500 297.500 460.250 297.218 L 472 296.937 472 291.468 L 472 286 459.950 286 L 447.900 286 448.200 280.250 L 448.500 274.500 461.250 274.220 L 474 273.940 474 268.970 L 474 264 456 264 L 438 264 438 293 M 483 293.052 L 483 322.105 488.250 321.802 L 493.500 321.500 493.782 309.750 C 494.084 297.137, 494.262 296.795, 499.322 299.101 C 501.470 300.080, 507.669 309.389, 512.407 318.750 C 513.986 321.870, 514.289 322, 520.026 322 C 523.312 322, 526 321.766, 526 321.480 C 526 320.002, 516.785 302.898, 514.571 300.266 C 513.157 298.586, 512 296.993, 512 296.727 C 512 296.461, 513.346 295.685, 514.991 295.004 C 522.037 292.085, 525.041 278.902, 520.461 271 C 517.015 265.056, 513.524 264.003, 497.250 264.002 L 483 264 483 293.052 M 603 293 L 603 322 622 322 L 641 322 641 317.029 L 641 312.058 627.750 311.779 L 614.500 311.500 614.500 304.500 L 614.500 297.500 626.250 297.218 L 638 296.937 638 291.468 L 638 286 625.950 286 L 613.900 286 614.200 280.250 L 614.500 274.500 627.250 274.220 L 640 273.940 640 268.970 L 640 264 621.500 264 L 603 264 603 293 M 649 293 L 649 322.148 663.332 321.824 C 677.374 321.507, 677.740 321.442, 681.453 318.607 C 683.742 316.859, 686.282 313.494, 687.871 310.107 C 690.232 305.071, 690.500 303.329, 690.500 293 C 690.500 282.671, 690.232 280.929, 687.871 275.893 C 686.282 272.506, 683.742 269.141, 681.453 267.393 C 677.740 264.558, 677.374 264.493, 663.332 264.176 L 649 263.852 649 293 M 5.207 265.842 C 4.277 266.439, 3.996 269.032, 4.207 275.086 L 4.500 283.500 12.750 283.790 L 21 284.081 21 304.040 L 21 324 34 324 L 47 324 47 304 L 47 284 55.538 284 L 64.075 284 63.788 274.750 L 63.500 265.500 35 265.257 C 19.325 265.123, 5.918 265.386, 5.207 265.842 M 79.277 266.250 C 78.409 267.371, 64.420 301.862, 58.389 317.750 L 56.017 324 68.808 324 L 81.598 324 82.731 320.750 C 83.354 318.962, 85.778 311.988, 88.118 305.250 C 90.458 298.512, 92.626 293.006, 92.936 293.014 C 93.246 293.021, 95.975 299.884, 99 308.264 L 104.500 323.500 117.250 323.780 C 124.263 323.934, 130 323.899, 130 323.702 C 130 321.936, 106.649 266.436, 105.623 265.765 C 103.598 264.440, 80.347 264.868, 79.277 266.250 M 124.667 265.667 C 124.300 266.033, 124 270.308, 124 275.167 L 124 284 132.500 284 L 141 284 141 304 L 141 324 153.500 324 L 166 324 166 304 L 166 284 174.424 284 L 182.848 284 183.193 275.750 C 183.383 271.212, 183.137 266.938, 182.647 266.250 C 181.970 265.301, 174.971 265, 153.544 265 C 138.028 265, 125.033 265.300, 124.667 265.667 M 198.105 266.805 C 196.598 269.620, 176 322.069, 176 323.090 C 176 323.591, 181.582 324, 188.405 324 L 200.811 324 203.768 315.750 C 205.395 311.212, 207.722 304.467, 208.941 300.761 C 210.159 297.054, 211.518 293.798, 211.961 293.524 C 212.404 293.250, 215.228 299.883, 218.237 308.263 L 223.707 323.500 236.353 323.780 C 243.309 323.934, 249 323.678, 249 323.212 C 249 322.221, 227.805 270.372, 226.090 267.168 C 224.991 265.116, 224.241 265, 212 265 C 200.561 265, 198.959 265.208, 198.105 266.805 M 288.351 274.731 C 287.642 275.206, 287.259 278.181, 287.351 282.500 L 287.500 289.500 291.405 289.820 C 296.249 290.216, 299.391 289.466, 301.430 287.427 C 303.577 285.280, 303.467 278.723, 301.250 276.763 C 299.266 275.008, 290.095 273.564, 288.351 274.731 M 338.232 275.228 C 336.985 275.830, 334.960 277.937, 333.733 279.911 C 330.732 284.737, 330.501 299.491, 333.336 305.191 C 336.643 311.840, 343.945 314.232, 349.607 310.522 C 355.249 306.825, 357.862 292.946, 354.824 282.807 C 352.611 275.420, 345.024 271.955, 338.232 275.228 M 493.852 275.127 C 493.601 275.882, 493.573 279.087, 493.790 282.250 L 494.185 288 501.536 288 C 507.998 288, 509.075 287.731, 510.443 285.777 C 512.579 282.729, 512.396 278.668, 510.026 276.523 C 507.418 274.164, 494.542 273.052, 493.852 275.127 M 660.488 275.171 C 660.192 275.941, 660.074 284.429, 660.225 294.035 L 660.500 311.500 667.146 311.500 C 675.069 311.500, 677.257 310.010, 678.897 303.496 C 680.301 297.918, 680.190 287.639, 678.671 282.606 C 677.142 277.541, 673.834 275.275, 666.762 274.445 C 662.305 273.923, 660.905 274.085, 660.488 275.171" stroke="none" fill="#2799f6" fill-rule="evenodd"/></svg>